<svg width="1600" height="163" viewBox="0 0 1600 163" fill="none" xmlns="http://www.w3.org/2000/svg">
<path d="M161.55 112.776C160.62 107.225 159.69 101.675 158.764 96.1232L155.512 76.7017L152.385 58.0097L151.112 50.3935C151.08 50.202 151.064 50.041 150.829 50.0431C147.337 50.0594 143.843 50.0492 140.352 50.0736C139.195 50.0818 138.074 50.3487 137.029 51.0048C135.569 51.9257 134.692 53.4661 134.078 55.2937L114.778 112.731C114.737 112.855 114.66 112.975 114.683 113.138C114.737 113.138 114.79 113.149 114.842 113.149C119.272 113.149 123.702 113.151 128.128 113.155C128.342 113.155 128.408 113.047 128.473 112.823C129.317 109.891 130.174 106.965 131.014 104.033C131.092 103.764 131.192 103.686 131.417 103.686C136.824 103.695 142.23 103.695 147.64 103.686C147.85 103.686 147.942 103.729 147.99 104.025C148.46 106.952 148.949 109.876 149.43 112.8C149.464 112.992 149.472 113.155 149.707 113.155C153.673 113.142 157.64 113.138 161.607 113.14V112.904C161.583 112.864 161.565 112.821 161.55 112.776ZM145.549 90.7951C142.047 90.789 138.545 90.7869 135.044 90.791C134.997 90.7858 134.951 90.7769 134.905 90.7645C137.204 82.8998 139.589 75.0962 141.839 67.1132C141.972 67.8875 142.092 68.5599 142.203 69.2383C143.377 76.3288 144.552 83.4153 145.729 90.5037C145.765 90.736 145.745 90.7951 145.549 90.7951ZM115.429 89.7356C114.985 86.3615 113.645 83.5844 111.707 81.2229C109.784 78.8798 107.519 77.1601 105.13 75.6687C103.327 74.544 101.513 73.4397 99.8318 72.042C99.1818 71.5 98.5702 70.903 98.0652 70.1573C96.9652 68.5415 96.9652 66.5876 98.0652 64.9698C98.5202 64.3117 99.0785 63.7758 99.7052 63.3948C101.065 62.537 102.532 62.2395 104.034 62.1458C107.883 61.9095 111.562 62.7856 115.053 64.8394C115.265 64.9616 115.482 65.0757 115.705 65.198C115.733 65.035 115.757 64.9229 115.769 64.8047C116.325 60.5362 116.874 56.2676 117.444 52.0031C117.492 51.6466 117.412 51.5304 117.169 51.4204C114.371 50.129 111.438 49.3259 108.457 49.0345C108.162 49.0039 107.854 49.0589 107.574 48.9H103.784C103.76 49.0121 103.684 48.9734 103.63 48.9795C102.38 49.0691 101.137 49.2545 99.9052 49.5296C96.6052 50.2835 93.4935 51.6425 90.7002 54.006C87.7152 56.5305 85.5002 59.819 84.3768 64.1466C83.6935 66.7791 83.4618 69.4767 83.8102 72.2212C84.2018 75.3345 85.4268 77.9222 87.1552 80.1634C88.9468 82.4862 91.0802 84.2221 93.3352 85.7462C94.7385 86.6916 96.1985 87.5025 97.5852 88.4968C98.7835 89.3546 99.9568 90.249 100.889 91.549C102.2 93.3766 102.267 95.8298 101.06 97.7307C100.649 98.3643 100.144 98.8967 99.5702 99.2996C98.3035 100.223 96.9152 100.705 95.4668 100.838C92.5118 101.113 89.5835 100.838 86.7135 99.8722C84.5252 99.1325 82.4602 98.0038 80.4218 96.7955C80.3052 96.7242 80.1952 96.6162 80.0435 96.6203L79.8985 97.7633C79.3485 102.007 78.7985 106.25 78.2452 110.492C78.2202 110.691 78.2535 110.775 78.3968 110.842C78.7885 111.025 79.1718 111.241 79.5685 111.413C83.5768 113.151 87.7252 113.892 91.9418 114.076C94.3085 114.175 96.6785 113.97 99.0118 113.464C101.964 112.829 104.787 111.722 107.385 109.831C111.12 107.109 113.785 103.291 114.983 98.0303C115.605 95.3122 115.792 92.5372 115.427 89.7376L115.429 89.7356ZM59.4502 50.0553C55.0935 50.0553 50.7385 50.0512 46.3818 50.0451C46.0952 50.0451 45.9735 50.1388 45.8685 50.4872C41.6968 64.5256 37.5168 78.5599 33.3285 92.5901C33.2918 92.7124 33.3002 92.8815 33.1618 92.9467L32.6352 89.6663C32.3368 87.8305 32.0385 85.9947 31.7352 84.163C31.7418 84.0836 31.7485 84 31.6885 83.9389C31.6785 83.8126 31.6735 83.6822 31.6552 83.5559L29.9718 72.8488C29.0502 67.0236 28.1468 61.1882 27.1968 55.367C26.7868 52.8467 25.6002 51.1413 23.5602 50.4546C22.7268 50.1816 21.8702 50.0471 21.0102 50.0553H0.591838C0.560805 50.0591 0.529538 50.0591 0.498505 50.0553C0.246838 49.9901 0.171838 50.1735 0.136838 50.4383C0.108505 50.6665 0.103505 50.9049 -0.00149536 51.1087V51.345C1.83184 51.8952 3.6235 52.6246 5.40184 53.409C6.82184 54.0406 8.21684 54.7538 9.58017 55.5484C11.0135 56.3675 12.4135 57.2823 13.7702 58.2848C13.7768 58.3194 13.7702 58.3764 13.8185 58.3642C13.7852 58.4966 13.8352 58.6148 13.8602 58.735L19.3818 84.7009C21.3652 94.0245 23.3485 103.35 25.3268 112.676C25.3968 113.01 25.5035 113.1 25.7685 113.098C30.1552 113.087 34.5435 113.087 38.9302 113.098C39.1685 113.098 39.2968 113.036 39.3935 112.731C46.1602 91.985 52.9285 71.2432 59.7018 50.5035C59.8468 50.0553 59.8468 50.0553 59.4468 50.0553H59.4502ZM77.8835 50.041C76.2335 50.0532 74.5818 50.0471 72.9302 50.0471H65.4168C65.2535 50.0471 65.1135 50.0288 65.0835 50.3202C65.0152 50.9824 64.9185 51.6405 64.8318 52.3006C64.1485 57.5635 63.4685 62.8284 62.7868 68.0912C62.2091 72.5401 61.6297 76.9887 61.0485 81.4369C59.708 91.8764 58.3529 102.313 56.9835 112.747C56.9302 113.155 57.0402 113.155 57.2868 113.153C59.3485 113.142 61.4102 113.146 63.4735 113.146H69.7535C69.9502 113.146 70.0435 113.108 70.0785 112.825C70.2785 111.166 70.4968 109.512 70.7102 107.855C73.193 88.715 75.6786 69.5754 78.1668 50.4363C78.2202 50.0614 78.1302 50.041 77.8835 50.0431V50.041Z" fill="#D0D1D1"/>
<path d="M288.527 67.101C277.682 67.101 269.207 77.1663 269.207 90.6402C269.207 104.114 277.467 114.092 288.527 114.092C299.587 114.092 307.99 103.943 307.99 90.5547C307.99 77.1683 299.73 67.101 288.527 67.101ZM288.6 104.383C282.423 104.383 277.898 98.5193 277.898 90.6443C277.898 82.7694 282.35 76.8178 288.527 76.8178C294.703 76.8178 299.298 82.7673 299.298 90.6443C299.298 98.5193 294.773 104.383 288.597 104.383H288.6ZM310.362 77.3415H315.748V113.222H324.367V67.9771H310.362V77.3415ZM247.522 76.8178C252.047 76.8178 255.637 80.2307 257 85.3061H266.123C264.47 74.4564 257.145 67.1051 247.593 67.1051C236.747 67.101 228.272 77.1663 228.272 90.6443C228.272 104.12 236.532 114.096 247.592 114.096C256.927 114.096 264.397 106.745 266.05 95.8053H257C255.708 100.881 252.117 104.383 247.592 104.383C241.342 104.383 236.963 98.5193 236.963 90.6443C236.963 82.7694 241.272 76.8178 247.522 76.8178ZM474.107 86.2718L467.787 85.1349C464.77 84.6113 462.615 83.3847 462.615 80.4955C462.615 77.3456 465.418 75.7726 469.223 75.7726C473.388 75.7726 476.047 77.9588 476.622 81.5469H484.952C484.017 72.4454 478.272 67.1092 469.44 67.1092C460.608 67.1092 454.285 72.7958 454.285 80.848C454.285 88.8961 458.237 93.0119 466.207 94.4117L472.527 95.5466C475.615 96.0702 477.34 97.5616 477.34 100.361C477.34 103.947 474.323 105.437 470.158 105.437C465.058 105.437 462.185 102.898 461.753 99.049H453.28C454.072 107.888 459.743 114.1 470.085 114.1C479.493 114.1 485.74 108.849 485.74 99.8335C485.74 91.7853 481.215 87.582 474.107 86.2718ZM320.055 49.3381C316.895 49.3381 314.523 52.1376 314.523 55.9865C314.523 59.8373 316.892 62.6348 320.055 62.6348C323.217 62.6348 325.587 59.8373 325.587 55.9865C325.587 52.1356 323.215 49.3381 320.055 49.3381ZM446.527 83.4662C446.527 73.6679 441.643 67.1051 431.302 67.1051C421.535 67.1051 416.077 73.1442 414.998 82.421H423.545C423.977 78.835 426.275 75.8582 431.158 75.8582C435.54 75.8582 437.695 78.2217 437.695 81.1088C437.695 84.8721 433.743 85.8338 428.86 86.4471C422.253 87.3212 414.065 90.1207 414.065 100.622C414.065 108.762 419.022 114.01 426.922 114.01C433.098 114.01 436.977 110.86 438.917 105.871C439.203 110.333 441.933 113.222 445.74 113.222H450.768V103.86H446.528V83.4682L446.527 83.4662ZM438.052 94.8456C438.052 100.885 433.743 105.347 428.5 105.347C425.267 105.347 422.537 103.684 422.537 100.186C422.537 95.7238 426.92 94.4972 430.942 93.9736C434.818 93.5355 436.973 92.4862 438.052 90.4711V94.8456ZM392.303 67.1051C387.492 67.1051 383.47 69.5562 380.597 73.6679V48.9H371.978V113.224H380.453V107.272C383.325 111.559 387.42 114.098 392.303 114.098C402.645 114.098 410.475 104.12 410.475 90.6443C410.475 77.1663 402.502 67.1051 392.303 67.1051ZM391.012 104.385C384.835 104.385 380.31 98.5233 380.31 90.6464C380.31 82.7714 384.905 76.8219 391.082 76.8219C397.258 76.8219 401.71 82.6858 401.71 90.6464C401.71 98.6089 397.185 104.387 391.008 104.387H391.012V104.385ZM351.367 67.103C345.765 67.103 342.102 69.9026 339.947 73.8431V67.9792H331.398V113.224H340.017V88.6313C340.017 81.718 343.608 76.8178 348.922 76.8178C353.878 76.8178 356.965 81.1047 356.965 87.3191V113.224H365.583V86.5326C365.583 75.1553 360.77 67.103 351.363 67.103H351.367ZM526.817 89.1549C526.817 76.2046 519.06 67.103 508.645 67.103C497.587 67.103 489.47 77.2539 489.47 90.6423C489.47 104.734 498.16 114.094 508.79 114.094C517.768 114.094 524.805 107.619 526.6 98.4316H517.622C516.328 102.458 513.168 104.734 508.93 104.734C503.398 104.734 499.233 100.532 498.302 93.181H526.813V89.1549H526.817ZM498.808 85.6524C500.173 79.3525 504.052 76.2901 508.505 76.2901C513.388 76.2901 517.123 79.7029 517.985 85.6524H498.808Z" fill="#D0D1D1"/>
<path fill-rule="evenodd" clip-rule="evenodd" d="M593.483 139.072C593.483 139.072 595.353 139.901 597.45 139.901C599.717 139.901 601.075 139.487 601.868 138.515C602.492 137.755 602.775 136.437 602.718 134.43V121.409H606.062V135.056C606.005 141.081 603.627 143.644 598.073 143.644C595.353 143.644 593.483 143.09 593.483 143.09V139.072ZM615.807 125.357C621.132 125.357 624.248 128.821 624.248 134.638C624.248 138.795 622.038 143.644 615.807 143.644C609.573 143.644 607.308 138.795 607.308 134.638C607.307 128.821 610.48 125.357 615.807 125.357ZM620.962 134.432C620.962 130.899 619.093 128.89 615.807 128.89C612.518 128.89 610.595 130.901 610.595 134.432C610.595 139.349 613.88 140.043 615.807 140.043C617.732 140.043 620.962 139.347 620.962 134.432ZM637.562 125.773V132.7H629.007V125.773H625.722V143.228H629.007V136.231H637.562V143.228H640.905V125.773H637.562ZM687.308 139.626V136.231H694.9V132.698H687.308V129.304H697.11V125.775H683.965V143.23H697.11V139.628L687.308 139.626ZM702.153 139.626V136.231H709.745V132.698H702.153V129.304H712.012V125.775H698.867V143.23H712.012V139.628L702.153 139.626ZM733.315 139.626V136.231H740.907V132.698H733.315V129.304H743.173V125.775H730.027V143.23H743.173V139.628L733.315 139.626ZM672.69 125.011C676.997 125.011 679.49 127.641 679.49 132.213C679.49 138.656 675.242 139.626 672.69 139.626H667.987V125.011H672.69ZM672.69 121.409H664.702V143.228H672.69C680.17 143.228 682.775 137.409 682.775 132.49C682.775 125.563 678.98 121.406 672.69 121.406V121.409ZM724.815 136.578C727.365 135.818 728.27 133.46 728.27 131.382C728.27 127.849 726.402 125.773 723.173 125.773H713.825V143.226H717.11V136.853H721.02L724.987 143.226H729.01L724.815 136.578ZM717.11 133.255V129.304H723.173C724.305 129.304 724.987 130.068 724.987 131.244C724.987 132.975 723.853 133.255 723.173 133.255H717.11ZM654.787 143.228L646.173 131.313V143.228H642.888V125.773H646.173L654.787 137.55V125.773H658.073V143.228H654.787ZM699.702 32.7528C690.295 27.4451 679.648 24.6639 668.897 24.6639C658.145 24.6639 647.602 27.4451 638.092 32.7528C634.992 42.6082 633.337 52.9709 633.337 63.46C633.337 73.949 634.992 84.4381 638.092 94.2955C647.602 99.6012 658.25 102.38 668.897 102.38C679.545 102.38 690.192 99.6032 699.702 94.2955C697.637 89.7458 694.43 85.7013 694.225 85.575C693.812 85.4487 685.438 82.2885 682.543 80.522C680.165 79.0041 677.788 75.4649 677.478 75.086C675.173 74.8137 672.85 74.8561 670.552 75.2123C667.555 75.7196 664.35 76.3512 661.248 75.7196C659.492 75.467 657.733 74.709 655.873 74.0753C653.187 72.9384 650.292 71.8015 647.087 71.8015C647.5 72.8121 650.292 79.1304 654.22 80.6483C654.22 80.6483 655.46 81.0273 655.873 81.4063L657.527 85.3244C657.527 85.3244 648.742 80.0167 642.952 71.2962L642.745 69.654C646.26 68.0118 649.878 67.6328 653.497 67.2538C653.497 67.2538 654.323 67.1275 654.427 67.1275C654.945 61.9441 656.08 57.3964 657.735 53.2256C658.045 52.7203 657.53 52.594 657.53 52.594C656.185 52.2171 652.67 51.3307 652.67 51.3307L652.155 49.5622C655.668 47.9179 660.01 46.5284 662.8 45.7724C663.213 45.0125 663.42 44.2545 663.42 43.7492C663.43 43.5146 663.398 43.2802 663.327 43.0621C663.255 42.844 663.146 42.6474 663.007 42.486C661.663 40.4648 656.287 41.0943 650.5 43.7492L650.395 43.6229C651.327 42.6102 652.982 41.4733 654.323 40.7154C653.91 38.5658 651.637 37.6836 651.637 37.6836V37.4289C653.6 37.6815 655.048 38.6921 655.772 39.9554C657.323 39.4521 658.047 39.1995 659.287 39.0731C659.183 35.915 656.598 33.6371 656.598 33.6371L656.703 33.5128C659.08 34.5234 660.837 36.5446 661.457 39.0752C662.404 39.0473 663.348 39.2175 664.248 39.5784C664.558 38.6942 664.66 37.6836 664.66 36.7973C664.66 33.7655 663.008 31.4916 662.903 31.3653L663.112 31.2369C666.11 33.1318 666.833 36.292 666.833 39.1995C666.833 41.8543 666.212 44.2525 666.005 44.8861C666.005 44.8861 669.417 44.1302 672 43.7492C671.897 44.0019 670.76 45.8967 667.66 47.92L665.178 47.541C664.972 48.2969 663.525 53.8572 663.525 58.03C663.525 59.4196 663.835 60.6829 664.558 61.4408C665.798 62.8324 667.867 62.9567 669.21 62.9567C679.032 62.4514 683.268 64.0957 683.89 64.4747C683.993 64.222 684.095 63.5904 684.095 62.7061C684.095 60.9355 683.682 58.1564 681.408 54.7436L681.512 54.6172C681.615 54.6172 687.405 58.407 688.127 64.3463L685.543 65.6116C687.818 68.5191 688.643 72.0562 689.263 74.9637C689.782 76.9869 690.193 78.7535 691.022 79.6398C692.055 80.7767 696.192 83.4295 696.293 83.4295C696.293 83.4295 697.533 85.3244 700.53 91.6468C703.138 82.5932 704.467 73.0628 704.458 63.4641C704.458 52.975 702.805 42.6123 699.705 32.7569L699.702 32.7528Z" fill="#D0D1D1"/>
<path fill-rule="evenodd" clip-rule="evenodd" d="M703.322 28.8347C692.985 22.767 681.2 19.3562 668.898 19.3562C656.597 19.3562 644.813 22.767 634.477 28.9589C630.857 39.5743 628.893 51.3287 628.893 63.4599C628.887 75.3374 630.784 87.1013 634.477 98.0872C645.22 104.392 656.982 107.673 668.898 107.69C680.816 107.673 692.578 104.392 703.322 98.0872C707.068 87.1168 709.001 75.3481 709.008 63.4599C709.007 51.3287 706.94 39.5764 703.322 28.8347ZM700.84 95.4344C691.33 100.995 680.268 104.027 668.898 104.027C657.528 104.027 646.57 100.995 636.957 95.4344C633.752 85.577 631.995 74.709 631.995 63.462C631.995 52.215 633.753 41.4733 636.957 31.4895C646.972 25.8411 657.869 22.9092 668.898 22.8953C680.268 22.8953 691.227 26.0535 700.84 31.4895C704.045 41.4733 705.905 52.215 705.905 63.462C705.905 74.709 704.147 85.575 700.84 95.4344Z" fill="#D0D1D1"/>
<mask id="mask0_31_2" style="mask-type:luminance" maskUnits="userSpaceOnUse" x="809" y="50" width="220" height="63">
<path d="M809.84 50.9375H1028.17V112.062H809.84V50.9375Z" fill="white"/>
</mask>
<g mask="url(#mask0_31_2)">
<path fill-rule="evenodd" clip-rule="evenodd" d="M891.385 68.5211C893.45 71.1008 894.851 74.3645 895.413 77.9079C895.981 81.4626 895.691 85.1427 894.577 88.4988C893.471 91.8333 891.585 94.6946 889.155 96.7242C886.744 98.7349 883.895 99.8119 880.977 99.8151C878.059 99.8119 875.209 98.7349 872.798 96.7242C870.368 94.6951 868.483 91.8335 867.378 88.4988C866.263 85.1431 865.972 81.4628 866.54 77.9079C867.103 74.3645 868.503 71.1008 870.568 68.5211C871.929 66.8215 873.552 65.4689 875.343 64.5419C877.126 63.6204 879.042 63.1455 880.977 63.1455C882.913 63.1455 884.829 63.6204 886.612 64.5419C888.403 65.469 890.025 66.8215 891.385 68.5211ZM880.977 50.9375C884.215 50.946 887.419 51.7439 890.402 53.2847C893.385 54.8254 896.086 57.078 898.348 59.9107C902.97 65.6964 905.552 73.4664 905.54 81.553C905.548 89.6382 902.963 97.4051 898.34 103.187C896.077 106.018 893.374 108.269 890.39 109.808C887.406 111.347 884.202 112.143 880.963 112.15C874.447 112.15 868.197 108.927 863.588 103.189C858.964 97.4069 856.378 89.638 856.387 81.551C856.375 73.465 858.957 65.6958 863.578 59.9107C865.84 57.078 868.542 54.8254 871.525 53.2847C874.508 51.7439 877.712 50.946 880.95 50.9375H880.977ZM942.862 68.5211C944.927 71.1003 946.328 74.3642 946.89 77.9079C947.458 81.4626 947.167 85.1427 946.053 88.4988C944.948 91.8333 943.062 94.6946 940.632 96.7242C938.221 98.7352 935.371 99.8123 932.453 99.8151C929.536 99.812 926.686 98.735 924.277 96.7242C921.846 94.6958 919.959 91.8341 918.855 88.4988C917.74 85.1431 917.448 81.4628 918.017 77.9079C918.579 74.3645 919.98 71.1008 922.045 68.5211C923.406 66.8215 925.029 65.4689 926.82 64.5419C928.603 63.6204 930.519 63.1455 932.454 63.1455C934.39 63.1455 936.306 63.6204 938.088 64.5419C939.879 65.469 941.502 66.8215 942.862 68.5211ZM949.802 59.8821C953.831 64.914 956.328 71.4814 956.878 78.4906C957.441 85.5135 956.027 92.5608 952.87 98.4683C949.747 104.323 945.053 108.665 939.595 110.746C934.166 112.804 928.316 112.452 923.078 109.752C917.805 107.022 913.471 102.138 910.817 95.9357C908.134 89.683 907.273 82.4995 908.377 75.5689C909.464 68.6624 912.46 62.4228 916.863 57.8956C921.223 53.4158 926.732 50.9528 932.427 50.9375C935.656 50.9335 938.853 51.7212 941.828 53.2542C944.818 54.7963 947.529 57.0504 949.802 59.8821ZM819.657 111.859L822.103 112.028H858.897L858.762 108.98C858.438 103.955 855.562 100.272 851.527 99.97L849.08 99.8029H827.025L856.448 63.1625L856.315 60.1144C856.127 55.0573 853.14 51.3735 849.08 51.1046L846.632 50.9701H809.84L809.973 54.0182C810.297 58.9755 813.202 62.7265 817.208 63.028L819.657 63.1951H841.737L812.287 99.8049L812.422 102.851C812.663 107.875 815.595 111.525 819.657 111.859ZM987.562 69.2546C988.395 71.066 988.665 73.075 988.772 75.3855L988.907 78.4336V99.8029L989.042 102.849C989.283 107.841 992.242 111.557 996.275 111.859L998.723 112.028V78.4356L998.857 75.3875C998.965 73.1096 999.207 71.0334 1000.07 69.2241C1000.93 67.3837 1002.17 65.852 1003.66 64.7823C1005.15 63.7203 1006.84 63.1618 1008.56 63.1646C1010.28 63.1688 1011.97 63.7335 1013.45 64.8007C1014.95 65.8775 1016.18 67.4147 1017.04 69.2587C1017.87 71.068 1018.14 73.1442 1018.22 75.3549L1018.36 78.401V99.8049L1018.49 102.851C1018.73 107.875 1021.66 111.559 1025.72 111.861L1028.17 112.03V75.3875C1028.17 70.4391 1026.96 65.6038 1024.69 61.506C1022.45 57.4434 1019.24 54.318 1015.49 52.5492C1011.77 50.7966 1007.7 50.4976 1003.84 51.6934C999.954 52.9014 996.471 55.5372 993.855 59.2444C990.726 54.8064 986.37 51.9309 981.618 51.1657C976.877 50.4169 972.077 51.8394 968.143 55.1592C966.233 52.5105 961.958 50.9701 959.51 50.9701V112.063L961.958 111.895C966.045 111.559 969.032 107.943 969.192 102.886L969.327 99.8375V78.4682L969.462 75.4201C969.568 73.1096 969.812 71.1006 970.672 69.2913C971.526 67.45 972.762 65.9165 974.255 64.8455C975.737 63.7829 977.425 63.225 979.143 63.2298C980.853 63.2175 982.533 63.7694 984.007 64.8272C985.492 65.8931 986.719 67.4225 987.562 69.2587V69.2546Z" fill="#D0D1D1"/>
</g>
<mask id="mask1_31_2" style="mask-type:luminance" maskUnits="userSpaceOnUse" x="1094" y="0" width="271" height="163">
<path d="M1094.84 0H1364.84V163H1094.84V0Z" fill="white"/>
</mask>
<g mask="url(#mask1_31_2)">
<path d="M1230.2 58.0687H1228.91V102.894H1230.2V58.0687ZM1206.01 69.5806H1200.36V91.8994H1206.01C1212.04 91.8994 1215.89 87.425 1215.89 80.7604C1215.89 74.0977 1212.04 69.6234 1206.01 69.6234V69.5806ZM1205.83 89.1956H1202.98V72.3659H1205.83C1210.89 72.3659 1213.25 75.8235 1213.25 80.7807C1213.25 85.7359 1210.89 89.1956 1205.83 89.1956ZM1186.7 85.1308L1174.4 68.9857V91.8321H1176.83V76.4225L1189.12 92.5616V69.6662H1186.7V85.1308ZM1094.84 80.7991C1094.84 87.4882 1098.69 91.9361 1104.72 91.9361H1111.43V80.359H1108.83V89.1528H1104.9C1099.84 89.1528 1097.49 85.7421 1097.49 80.738C1097.49 75.7298 1099.84 72.321 1104.9 72.321H1111.43V69.5806H1104.72C1098.69 69.5806 1094.84 74.0468 1094.84 80.7176V80.7991ZM1137.02 76.3675C1137.02 71.4164 1134.19 69.5989 1129.28 69.5989H1123.66V91.9177H1126.23V72.321H1129.17C1132.96 72.321 1134.38 73.1442 1134.39 76.3492C1134.39 79.5542 1132.96 80.3773 1129.17 80.3773H1127.42L1135.17 91.881H1138.44C1138.44 91.881 1132.04 82.8712 1132.1 82.8651C1135.26 82.209 1137.01 80.2469 1137.02 76.3492L1137.02 76.3675ZM1147.5 91.8872H1150.03L1152 86.6141H1160.28L1162.22 91.8872H1164.93L1156.2 68.894L1147.5 91.8872ZM1153.21 83.3969L1156.19 75.5138L1159.11 83.4152L1153.21 83.3969ZM1317.49 71.9319H1324.26V91.6467H1326.9V71.9319H1333.49V69.1711H1317.49V71.9319ZM1342.26 69.1711V71.9319H1349.08V91.6467H1351.71V71.9319H1358.61V69.1711H1342.26ZM1277.56 80.6198L1271.44 69.1649H1268.54L1276.19 83.8553V91.6528H1278.81V83.7677L1286.31 69.1649H1283.5L1277.56 80.6198ZM1292.09 91.6467H1294.66L1296.75 86.6223H1306.2L1308.25 91.6467H1310.99L1301.54 68.3683L1292.09 91.6467ZM1298.07 83.405L1301.51 75.1124L1304.89 83.405H1298.07ZM1256.38 79.5501H1246.5V69.1792H1243.88V91.6671H1246.5V82.315H1256.38V91.6671H1259.01V69.1792H1256.38V79.5501ZM1363.03 69.1833C1362.79 69.1675 1362.55 69.2108 1362.32 69.3105C1362.1 69.4103 1361.89 69.5645 1361.71 69.764C1361.45 70.0632 1361.27 70.4537 1361.2 70.8821C1361.12 71.3105 1361.16 71.7561 1361.3 72.158C1361.4 72.4267 1361.54 72.6684 1361.71 72.8682C1361.89 73.0681 1362.09 73.2216 1362.32 73.3194C1362.55 73.4172 1362.79 73.462 1363.03 73.4457C1363.27 73.4615 1363.51 73.4183 1363.73 73.3185C1363.96 73.2188 1364.17 73.0646 1364.34 72.8651C1364.52 72.6665 1364.65 72.4265 1364.75 72.1598C1364.84 71.8932 1364.89 71.6055 1364.9 71.3145C1364.89 71.0237 1364.85 70.7361 1364.75 70.4697C1364.66 70.2032 1364.52 69.9637 1364.34 69.766C1364.17 69.5651 1363.96 69.4098 1363.73 69.3096C1363.51 69.2095 1363.27 69.1665 1363.03 69.1833ZM1363.03 73.0749C1362.74 73.0717 1362.46 72.9655 1362.22 72.7693C1361.98 72.5743 1361.8 72.2978 1361.69 71.9747C1361.58 71.652 1361.55 71.2972 1361.61 70.9563C1361.67 70.6154 1361.82 70.3043 1362.02 70.0635C1362.23 69.8179 1362.49 69.6524 1362.77 69.5879C1363.06 69.5233 1363.35 69.5626 1363.61 69.7008C1363.88 69.8361 1364.1 70.0634 1364.26 70.3541C1364.42 70.6448 1364.5 70.986 1364.5 71.3349C1364.51 71.6894 1364.43 72.0387 1364.27 72.3324C1364.1 72.6262 1363.87 72.8491 1363.6 72.969C1363.41 73.0516 1363.22 73.0877 1363.03 73.0749Z" fill="#D0D1D1"/>
<path d="M1363.9 72.4657C1363.74 72.2293 1363.34 71.667 1363.26 71.5488C1363.33 71.5491 1363.4 71.5312 1363.47 71.4961C1363.54 71.461 1363.6 71.4096 1363.65 71.3451C1363.69 71.2806 1363.73 71.2042 1363.75 71.1209C1363.78 71.0376 1363.78 70.9493 1363.78 70.8622C1363.78 70.3732 1363.52 70.149 1362.96 70.149H1362.36V72.4901H1362.66V70.4587H1362.95C1363.35 70.4587 1363.47 70.5606 1363.47 70.8622C1363.47 71.1658 1363.34 71.2636 1362.95 71.2636H1362.74L1363.56 72.5024H1363.93L1363.9 72.4636V72.4657Z" fill="#D0D1D1"/>
</g>
<path d="M1560.54 83.5864C1561.39 83.5497 1563.48 83.8818 1567.99 84.0917C1572.72 84.3138 1573.66 79.7926 1573.47 76.9951C1568.65 78.2787 1567.51 78.6088 1563.35 78.6088C1558.98 78.6088 1553.6 80.1124 1553.5 84.8557C1553.4 89.5624 1558.39 90.6219 1560.98 91.5184C1561.7 91.7282 1561.97 92.4434 1561.49 92.912C1560.38 94.0082 1557.88 95.4487 1557.58 98.0241C1557.16 101.671 1559.85 104.528 1563.26 104.442C1567.79 104.33 1572.8 101.942 1577.62 94.8089C1578.97 92.7877 1580.5 89.3892 1581.45 87.8855C1581.68 87.3435 1582.33 87.0848 1582.61 87.1214C1583.47 87.3557 1584.68 88.1565 1584.52 89.3138C1584.27 91.0762 1580.38 96.5836 1582.97 99.8966C1584.57 101.928 1588.58 103.407 1591.77 100.536C1594.77 97.8509 1593.71 95.4018 1592.52 95.2144C1591.67 95.0921 1589.31 98.7637 1587.4 96.1394C1585.81 93.9715 1589.58 89.4748 1590.34 87.8611C1591.42 85.5444 1587.2 83.8064 1585.42 80.9376C1584.27 79.0529 1587.25 73.2522 1583.52 71.724C1582.31 71.2187 1578.55 74.0142 1579.88 82.046C1578.18 89.9801 1565.16 103.864 1563.43 98.2706C1563.01 96.9035 1564.12 94.6357 1567.11 93.8717C1572.03 92.6043 1571.64 88.8472 1569.29 88.4641C1565.6 87.8733 1564.57 87.8733 1560.17 86.6039C1558.45 86.3839 1558.51 83.5375 1560.54 83.5884V83.5864ZM1489.48 92.7429C1488.3 94.2018 1486.93 96.2331 1486.75 97.8631C1486.35 101.402 1487.85 104.526 1491.53 104.444C1495.48 104.357 1496.79 100.854 1503.4 95.9418C1505.25 94.5665 1507.54 92.2437 1508.49 92.0624C1508.85 92.0624 1509.38 92.1968 1509.34 93.0465C1508.79 96.2698 1508.17 98.4357 1508.85 101.196C1509.33 103.128 1511.43 104.344 1512.95 102.947C1515.48 100.612 1515.51 99.2853 1518.78 94.0326C1519.32 93.1565 1521.31 89.1671 1522.23 89.7029C1522.99 90.141 1522.77 91.4409 1522.64 92.4515C1521.95 97.3762 1520.2 105.147 1528.16 103.955C1530.05 103.676 1531.58 102.107 1530.14 100.453C1529.28 99.4544 1528.3 100.174 1527.21 99.8701C1524.65 99.1529 1530.97 84.923 1527.95 82.2844C1523.71 78.5762 1519.78 85.1552 1516.83 89.9454C1515.67 91.8423 1514.81 91.0049 1514.05 88.3399C1513.22 85.3733 1508.17 87.5391 1505.27 89.3627C1500.65 92.2682 1492.12 102.009 1491.33 97.1582C1491.19 96.3187 1492.31 94.4463 1494.38 93.5212C1496.81 92.4393 1499.57 91.4776 1499.57 89.6907C1499.57 88.3052 1498.88 87.3313 1498.15 87.3802C1494.76 87.6104 1490.8 88.7046 1486.28 87.1846C1485.26 87.1724 1484.81 84.0122 1487.87 84.4238C1488.67 84.5338 1490.47 84.6805 1497.31 84.8517C1502.13 84.9719 1502.23 80.5688 1501.59 78.2216C1497.58 79.6825 1495.54 79.5114 1491.3 79.5114C1486.85 79.5114 1480.87 80.2652 1481.12 85.4955C1481.34 89.8965 1486.39 91.1129 1489.01 91.4654C1489.79 91.4043 1490.02 92.2804 1489.48 92.7429Z" fill="#D0D1D1" stroke="#D0D1D1" stroke-width="1.207" stroke-miterlimit="3.864"/>
<path fill-rule="evenodd" clip-rule="evenodd" d="M1474.41 80.6769C1474.81 78.8146 1475.69 78.3949 1476.85 78.0607C1478.56 77.3578 1480.97 76.4205 1482.44 76.0884C1486.17 74.9393 1487.24 75.2123 1487.73 71.9788C1488.06 69.7335 1487.28 68.6597 1487.28 68.6597C1487.28 68.6597 1479.15 71.8443 1477.53 72.4107C1476.11 73.1748 1476.37 71.3125 1476.37 71.3125C1476.37 71.3125 1476.17 72.4963 1477.05 67.6735C1479.71 53.0158 1478.16 49.1058 1476.04 46.8707C1470.67 41.3205 1451.12 52.8202 1437.12 66.6487C1432.46 71.72 1429.76 72.9038 1432.79 76.9625C1435.49 80.3448 1437.25 77.8142 1437.25 77.8142C1439.82 75.2734 1445.36 68.1666 1449.01 64.7864C1454.2 59.9738 1461.37 53.03 1467.72 51.1779C1472.75 49.5867 1474.27 51.4367 1473.59 57.8528C1473.2 63.3683 1469.81 75.7787 1469.81 75.7787C1469.81 75.7787 1464.6 78.6923 1463.06 79.4177C1461.84 79.9862 1460.55 79.5909 1460.41 83.0587C1460.35 86.771 1462.15 85.3774 1463.36 84.811C1464.3 84.3647 1466.5 83.0709 1467.31 82.639C1467.92 82.0481 1468.59 82.5514 1468.26 83.6496C1467.65 86.1048 1466.55 90.0779 1464.47 95.8277C1461.84 103.686 1457.11 114.43 1456.5 117.134C1456.57 118.911 1458.13 119.157 1460.17 119.194C1462.05 119.01 1462.92 117.38 1462.92 117.38C1462.92 117.38 1465.36 110.805 1469.13 99.2059C1471.88 90.7808 1473.66 83.8228 1474.41 80.6769Z" fill="#D0D1D1" stroke="#D0D1D1" stroke-width="1.207" stroke-miterlimit="3.864"/>
<path d="M1543.48 83.8431C1540.52 82.7897 1537.93 87.1113 1537.17 90.9642C1536.48 94.4768 1536.84 99.1916 1539.42 99.8049C1541.48 100.294 1543.89 98.0608 1544.5 93.9491C1544.66 92.8428 1545.05 89.3199 1545.16 88.4234C1545.87 82.8264 1546.41 80.3834 1546.41 80.3834C1548.88 68.7086 1554.81 45.9966 1556.42 44.6701C1558.1 43.2948 1562.71 43.0605 1561.27 47.7997C1559.02 55.1653 1556.41 61.6975 1554.05 70.7828C1551.28 81.4389 1545.92 98.5396 1550.7 99.3016C1552.94 99.6562 1553.84 97.1154 1555.19 98.4051C1557.24 100.382 1555 103.953 1551.04 104.432C1545.6 104.677 1545.72 100.75 1543.31 102.443C1535.57 107.857 1530.81 100.284 1532.33 90.8053C1533.64 82.6777 1538.72 76.9441 1544.39 80.4548C1544.39 80.4548 1545.85 81.3411 1545.73 82.8631C1545.62 84.0163 1544.9 84.2466 1543.48 83.8431Z" fill="#D0D1D1" stroke="#D0D1D1" stroke-width="1.207" stroke-miterlimit="3.864"/>
<path fill-rule="evenodd" clip-rule="evenodd" d="M1594.98 73.8553C1595.52 73.8553 1595.92 73.9165 1596.18 74.0428C1596.64 74.269 1596.86 74.7355 1596.86 75.414C1596.86 75.8908 1596.72 76.2433 1596.43 76.4837C1596.23 76.6264 1596.01 76.7166 1595.79 76.7486C1596.14 76.8097 1596.39 76.9849 1596.55 77.2743C1596.7 77.5142 1596.78 77.8049 1596.79 78.1056V78.4927C1596.79 78.6211 1596.79 78.7576 1596.8 78.8961C1596.8 78.9908 1596.81 79.0848 1596.84 79.1732L1596.87 79.2364H1596.14C1596.14 79.2242 1596.13 79.1977 1596.13 79.1854C1596.13 79.1732 1596.12 79.1488 1596.12 79.1243L1596.1 78.9471V78.5192C1596.1 77.8916 1595.97 77.4882 1595.69 77.2865C1595.52 77.1744 1595.23 77.1113 1594.82 77.1113H1594.2V79.2364H1593.42V73.8411H1594.98V73.8553ZM1595.81 74.7111C1595.61 74.5705 1595.3 74.5073 1594.87 74.5073H1594.21V76.4572H1594.91C1595.24 76.4572 1595.49 76.4206 1595.66 76.3309C1595.8 76.2698 1595.92 76.1546 1596 76.0028C1596.08 75.851 1596.12 75.6708 1596.11 75.4894C1596.11 75.1003 1596.01 74.8496 1595.81 74.7111ZM1597.9 80.0534C1597.12 81.0212 1596.17 81.5 1595.05 81.5C1594.52 81.5124 1593.99 81.3903 1593.5 81.1413C1593.01 80.8923 1592.57 80.5219 1592.2 80.0534C1591.82 79.6007 1591.52 79.058 1591.32 78.4588C1591.12 77.8596 1591.02 77.2165 1591.03 76.5693C1591.03 75.2123 1591.43 74.0693 1592.21 73.0994C1592.58 72.6372 1593.02 72.2717 1593.51 72.0254C1594 71.7791 1594.52 71.6571 1595.05 71.6671C1596.16 71.6671 1597.11 72.1438 1597.9 73.0994C1598.69 74.0571 1599.08 75.2123 1599.08 76.5713C1599.09 77.9283 1598.69 79.0836 1597.9 80.0534ZM1592.6 73.5782C1592.28 73.967 1592.02 74.4329 1591.85 74.9475C1591.67 75.4621 1591.59 76.0146 1591.59 76.5713C1591.59 77.7531 1591.93 78.7453 1592.59 79.5766C1592.91 79.9785 1593.29 80.2963 1593.71 80.5101C1594.14 80.7239 1594.59 80.8292 1595.05 80.8195C1595.5 80.828 1595.96 80.7221 1596.38 80.5084C1596.8 80.2946 1597.18 79.9776 1597.5 79.5766C1597.83 79.185 1598.08 78.7168 1598.26 78.2003C1598.43 77.6838 1598.52 77.1297 1598.51 76.5713C1598.51 75.4018 1598.17 74.4075 1597.5 73.5762C1597.18 73.1753 1596.8 72.8582 1596.38 72.6445C1595.96 72.4307 1595.5 72.3248 1595.05 72.3333C1594.1 72.3333 1593.28 72.751 1592.6 73.5782Z" fill="#D0D1D1"/>
</svg>
