<svg width="1913" height="252" viewBox="0 0 1913 252" fill="none" xmlns="http://www.w3.org/2000/svg">
<path fill-rule="evenodd" clip-rule="evenodd" d="M-8 0L56.0333 18C120.067 36 248.133 72 376.2 66C504.267 60 632.333 12 760.4 6C888.467 0 1016.53 36 1144.6 54C1272.67 72 1400.73 72 1528.8 60C1656.87 48 1784.93 24 1848.97 12L1913 0V252H1848.97C1784.93 252 1656.87 252 1528.8 252C1400.73 252 1272.67 252 1144.6 252C1016.53 252 888.467 252 760.4 252C632.333 252 504.267 252 376.2 252C248.133 252 120.067 252 56.0333 252H-8V0Z" fill="#20BE89"/>
</svg>
